<?xml version="1.0" encoding="UTF-8"?>
<!DOCTYPE svg PUBLIC "-//W3C//DTD SVG 1.1//EN" "http://www.w3.org/Graphics/SVG/1.1/DTD/svg11.dtd">
<svg xmlns="http://www.w3.org/2000/svg" version="1.1" width="100px" height="100px" style="shape-rendering:geometricPrecision; text-rendering:geometricPrecision; image-rendering:optimizeQuality; fill-rule:evenodd; clip-rule:evenodd" xmlns:xlink="http://www.w3.org/1999/xlink">
<g><path style="opacity:0.958" fill="#fcfcfc" d="M 39.5,-0.5 C 46.1667,-0.5 52.8333,-0.5 59.5,-0.5C 80.5,5.16667 93.8333,18.5 99.5,39.5C 99.5,46.1667 99.5,52.8333 99.5,59.5C 93.8333,80.5 80.5,93.8333 59.5,99.5C 52.8333,99.5 46.1667,99.5 39.5,99.5C 18.5,93.8333 5.16667,80.5 -0.5,59.5C -0.5,52.8333 -0.5,46.1667 -0.5,39.5C 5.16667,18.5 18.5,5.16667 39.5,-0.5 Z"/></g>
<g><path style="opacity:1" fill="#26211b" d="M 71.5,49.5 C 71.7678,51.099 71.4345,52.4324 70.5,53.5C 68.7446,56.8482 67.078,60.3482 65.5,64C 72.9776,72.4455 74.4776,81.9455 70,92.5C 69.1627,94.0074 67.9961,94.5074 66.5,94C 62.6223,88.4114 58.6223,82.9114 54.5,77.5C 53.0715,78.935 51.4048,79.935 49.5,80.5C 47.5534,79.723 45.7201,78.723 44,77.5C 39.022,82.9831 34.1886,88.6498 29.5,94.5C 24.8815,89.0184 23.3815,82.6851 25,75.5C 27.0863,71.0814 29.5863,66.9147 32.5,63C 28.2715,55.0239 26.2715,46.5239 26.5,37.5C 18.5,37.5 10.5,37.5 2.5,37.5C 6.27441,24.4366 14.9411,19.2699 28.5,22C 32.1943,23.1982 35.5276,25.0315 38.5,27.5C 39.4975,19.8622 39.8308,12.1955 39.5,4.5C 53.5796,5.62172 59.9129,13.2884 58.5,27.5C 62.1026,25.6987 65.7692,23.8654 69.5,22C 82.5155,19.5059 91.5155,24.3393 96.5,36.5C 88.5277,37.4977 80.5277,37.831 72.5,37.5C 72.1667,41.5 71.8333,45.5 71.5,49.5 Z"/></g>
<g><path style="opacity:1" fill="#a3c635" d="M 54.5,17.5 C 54.5299,18.4972 54.0299,19.1639 53,19.5C 49.8231,18.2255 46.6564,18.2255 43.5,19.5C 43.5,15.8333 43.5,12.1667 43.5,8.5C 49.2968,8.9686 52.9635,11.9686 54.5,17.5 Z"/></g>
<g><path style="opacity:1" fill="#2a2517" d="M 45.5,13.5 C 46.5,13.5 47.5,13.5 48.5,13.5C 48.5,14.5 48.5,15.5 48.5,16.5C 47.5,16.5 46.5,16.5 45.5,16.5C 45.5,15.5 45.5,14.5 45.5,13.5 Z"/></g>
<g><path style="opacity:1" fill="#5eb143" d="M 54.5,17.5 C 55.4682,19.6074 55.8016,21.9407 55.5,24.5C 53.2133,24.2761 51.0466,23.6094 49,22.5C 47.4329,23.8561 45.5996,24.5228 43.5,24.5C 43.5,22.8333 43.5,21.1667 43.5,19.5C 46.6564,18.2255 49.8231,18.2255 53,19.5C 54.0299,19.1639 54.5299,18.4972 54.5,17.5 Z"/></g>
<g><path style="opacity:1" fill="#a5ca36" d="M 30.5,26.5 C 25.5842,29.9619 20.2508,32.2952 14.5,33.5C 12.0478,33.4609 10.0478,32.7943 8.5,31.5C 14.5219,24.3439 21.8552,22.6772 30.5,26.5 Z"/></g>
<g><path style="opacity:1" fill="#a6c936" d="M 90.5,33.5 C 86.1539,33.6657 81.8206,33.499 77.5,33C 73.9915,30.9703 70.6581,28.8036 67.5,26.5C 77.3831,22.0439 85.0497,24.3772 90.5,33.5 Z"/></g>
<g><path style="opacity:1" fill="#5da73f" d="M 30.5,26.5 C 32.1998,27.016 33.5331,28.016 34.5,29.5C 32.5065,31.4986 30.1732,32.9986 27.5,34C 20.8417,34.4996 14.175,34.6663 7.5,34.5C 7.26269,33.209 7.59603,32.209 8.5,31.5C 10.0478,32.7943 12.0478,33.4609 14.5,33.5C 20.2508,32.2952 25.5842,29.9619 30.5,26.5 Z"/></g>
<g><path style="opacity:1" fill="#239645" d="M 47.5,26.5 C 56.4248,26.6765 58.7581,30.3432 54.5,37.5C 46.711,40.6852 42.211,38.3519 41,30.5C 43.3143,29.2668 45.4809,27.9334 47.5,26.5 Z"/></g>
<g><path style="opacity:1" fill="#62ad40" d="M 67.5,26.5 C 70.6581,28.8036 73.9915,30.9703 77.5,33C 81.8206,33.499 86.1539,33.6657 90.5,33.5C 84.013,34.654 77.3464,34.8206 70.5,34C 68.2827,32.7316 66.2827,31.2316 64.5,29.5C 65.1882,28.1451 66.1882,27.1451 67.5,26.5 Z"/></g>
<g><path style="opacity:1" fill="#239645" d="M 35.5,32.5 C 36.4959,32.4142 37.3292,32.7476 38,33.5C 39.5555,35.4434 40.7221,37.6101 41.5,40C 40.4303,42.8061 39.097,45.4728 37.5,48C 35.1902,48.4966 32.8568,48.6633 30.5,48.5C 29.6693,44.5239 29.5027,40.5239 30,36.5C 32.0153,35.3034 33.8487,33.9701 35.5,32.5 Z"/></g>
<g><path style="opacity:1" fill="#239745" d="M 60.5,32.5 C 69.8001,34.3071 72.1335,39.4738 67.5,48C 65.5,48.6667 63.5,48.6667 61.5,48C 58.4555,45.0878 57.2889,41.5878 58,37.5C 59.3717,36.0899 60.205,34.4233 60.5,32.5 Z"/></g>
<g><path style="opacity:1" fill="#239846" d="M 44.5,41.5 C 47.8984,41.1796 51.2317,41.513 54.5,42.5C 56.309,45.4186 57.4756,48.4186 58,51.5C 56.6233,53.7538 55.1233,55.9205 53.5,58C 49.4016,59.1469 45.9016,58.3136 43,55.5C 42.0296,53.7262 41.1963,51.8928 40.5,50C 41.7107,47.08 43.044,44.2467 44.5,41.5 Z"/></g>
<g><path style="opacity:1" fill="#386fe6" d="M 70.5,53.5 C 71.4345,52.4324 71.7678,51.099 71.5,49.5C 74.5329,47.3169 77.8662,45.6502 81.5,44.5C 85.347,45.5011 88.847,47.1678 92,49.5C 92.4574,52.796 93.2907,55.9627 94.5,59C 92.4023,61.854 90.069,64.5206 87.5,67C 83.4589,67.8265 79.4589,67.6599 75.5,66.5C 73.31,64.1443 71.31,61.6443 69.5,59C 70.4061,57.3005 70.7394,55.4672 70.5,53.5 Z"/></g>
<g><path style="opacity:1" fill="#f6f8fe" d="M 81.5,47.5 C 83.3935,50.617 86.0601,51.7836 89.5,51C 88.8333,51.6667 88.1667,52.3333 87.5,53C 87.9963,54.9964 88.9963,56.6631 90.5,58C 87.8978,59.0148 86.0645,60.8482 85,63.5C 83,62.1667 81,62.1667 79,63.5C 77.8333,61 76,59.1667 73.5,58C 75.0037,56.6631 76.0037,54.9964 76.5,53C 76.1667,52.6667 75.8333,52.3333 75.5,52C 78.5433,51.6682 80.5433,50.1682 81.5,47.5 Z"/></g>
<g><path style="opacity:1" fill="#239244" d="M 31.5,51.5 C 33.7925,51.2436 35.9592,51.5769 38,52.5C 39.3034,54.9398 40.47,57.4398 41.5,60C 39.7661,65.7836 37.5994,65.9502 35,60.5C 33.2589,57.6907 32.0922,54.6907 31.5,51.5 Z"/></g>
<g><path style="opacity:1" fill="#239445" d="M 61.5,51.5 C 63.1667,51.5 64.8333,51.5 66.5,51.5C 65.6539,56.3741 63.6539,60.7074 60.5,64.5C 58.4947,63.6628 57.4947,62.1628 57.5,60C 58.1743,56.8198 59.5076,53.9864 61.5,51.5 Z"/></g>
<g><path style="opacity:1" fill="#326ce6" d="M 79.5,51.5 C 81.2252,51.8425 81.7252,52.8425 81,54.5C 78.8424,53.9498 78.3424,52.9498 79.5,51.5 Z"/></g>
<g><path style="opacity:1" fill="#326de6" d="M 82.5,51.5 C 86.0507,52.1855 86.2173,53.1855 83,54.5C 82.5172,53.552 82.3505,52.552 82.5,51.5 Z"/></g>
<g><path style="opacity:1" fill="#326ce6" d="M 76.5,54.5 C 78.9828,54.73 79.4828,55.3966 78,56.5C 76.9701,56.1639 76.4701,55.4972 76.5,54.5 Z"/></g>
<g><path style="opacity:1" fill="#326ce6" d="M 84.5,54.5 C 86.9828,54.73 87.4828,55.3966 86,56.5C 84.9701,56.1639 84.4701,55.4972 84.5,54.5 Z"/></g>
<g><path style="opacity:1" fill="#326ce6" d="M 78.5,57.5 C 80.6456,57.6964 80.8122,58.6964 79,60.5C 77.2716,59.6477 77.105,58.6477 78.5,57.5 Z"/></g>
<g><path style="opacity:1" fill="#326ce6" d="M 83.5,58.5 C 84.4971,57.2875 85.4971,57.4542 86.5,59C 85.2805,60.7947 84.2805,60.6281 83.5,58.5 Z"/></g>
<g><path style="opacity:1" fill="#326ce6" d="M 81.5,58.5 C 84.3771,60.8455 84.0437,61.6789 80.5,61C 81.2524,60.3292 81.5858,59.4959 81.5,58.5 Z"/></g>
<g><path style="opacity:1" fill="#239746" d="M 44.5,61.5 C 47.8499,61.335 51.1832,61.5017 54.5,62C 56.3769,64.2314 57.2102,66.7314 57,69.5C 54.8333,71.6667 52.6667,73.8333 50.5,76C 46.3036,75.0115 42.9703,72.5115 40.5,68.5C 41.8611,66.1495 43.1944,63.8162 44.5,61.5 Z"/></g>
<g><path style="opacity:1" fill="#5bb245" d="M 35.5,80.5 C 33.5,78.1667 31.5,75.8333 29.5,73.5C 32.4204,66.1304 35.9204,65.7971 40,72.5C 39.8354,75.8214 38.3354,78.4881 35.5,80.5 Z"/></g>
<g><path style="opacity:1" fill="#5bb144" d="M 68.5,74.5 C 65.8334,76.1734 63.8334,78.5067 62.5,81.5C 60.6828,79.5077 59.0162,77.3411 57.5,75C 59.2058,72.4285 61.0391,69.9285 63,67.5C 65.4295,69.4221 67.2628,71.7554 68.5,74.5 Z"/></g>
<g><path style="opacity:1" fill="#a2c536" d="M 29.5,73.5 C 31.5,75.8333 33.5,78.1667 35.5,80.5C 34.4434,82.9413 33.11,85.2746 31.5,87.5C 30.7261,88.7112 29.8928,88.7112 29,87.5C 26.8548,82.6961 27.0214,78.0294 29.5,73.5 Z"/></g>
<g><path style="opacity:1" fill="#a2c636" d="M 68.5,74.5 C 69.828,78.8031 69.828,83.1364 68.5,87.5C 67.9984,88.521 67.3317,88.6877 66.5,88C 64.7682,86.0281 63.4348,83.8614 62.5,81.5C 63.8334,78.5067 65.8334,76.1734 68.5,74.5 Z"/></g>
</svg>
